<svg width="39" height="31" viewBox="0 0 39 31" fill="none" xmlns="http://www.w3.org/2000/svg"><path d="M7.069 30.932v-2.057c0-.787-.469-1.303-1.273-1.303-.402 0-.839.136-1.14.584-.234-.376-.57-.584-1.073-.584-.336 0-.671.104-.937.48v-.412h-.702v3.292h.702v-1.818c0-.583.3-.859.77-.859.468 0 .702.308.702.86v1.817h.702v-1.818c0-.583.336-.859.77-.859.468 0 .702.308.702.86v1.817h.777zm10.42-3.292H16.35v-.995h-.702v.995h-.637v.651h.637v1.51c0 .755.3 1.199 1.104 1.199.3 0 .636-.104.87-.24l-.202-.619a1.104 1.104 0 01-.605.172c-.336 0-.469-.208-.469-.547V28.29h1.14v-.65h.004zm5.965-.072c-.402 0-.672.208-.84.48v-.412h-.702v3.292h.703v-1.854c0-.547.234-.859.671-.859.133 0 .3.036.437.068l.203-.687c-.14-.028-.34-.028-.472-.028zm-9.012.344c-.336-.24-.805-.344-1.308-.344-.804 0-1.339.412-1.339 1.063 0 .547.402.859 1.105.959l.335.036c.367.068.57.171.57.343 0 .24-.269.412-.737.412-.469 0-.84-.172-1.074-.344l-.335.547c.366.276.87.412 1.373.412.937 0 1.476-.447 1.476-1.063 0-.583-.437-.89-1.105-.994l-.335-.036c-.3-.036-.535-.104-.535-.308 0-.24.234-.375.605-.375.402 0 .804.171 1.007.275l.297-.583zm18.692-.344c-.402 0-.672.208-.84.48v-.412h-.702v3.292h.702v-1.854c0-.547.235-.859.672-.859.133 0 .3.036.437.068l.203-.679c-.137-.036-.336-.036-.472-.036zm-8.978 1.718c0 .995.672 1.714 1.71 1.714.468 0 .804-.104 1.14-.376l-.336-.583c-.27.208-.535.308-.84.308-.569 0-.971-.412-.971-1.063 0-.62.402-1.03.972-1.063.3 0 .57.104.839.308l.336-.583c-.336-.276-.672-.376-1.14-.376-1.038-.004-1.71.72-1.71 1.714zm6.5 0V27.64h-.703v.412c-.235-.308-.57-.48-1.007-.48-.906 0-1.609.72-1.609 1.714 0 .995.703 1.714 1.609 1.714.468 0 .804-.172 1.007-.48v.412h.702v-1.646zm-2.58 0c0-.583.366-1.063.971-1.063.57 0 .972.448.972 1.063 0 .583-.402 1.063-.972 1.063-.601-.036-.972-.484-.972-1.063zm-8.408-1.718c-.937 0-1.608.687-1.608 1.714 0 1.03.671 1.714 1.643 1.714.468 0 .937-.136 1.308-.447l-.336-.516c-.27.208-.605.344-.937.344-.437 0-.87-.208-.972-.787h2.377v-.276c.031-1.059-.573-1.746-1.475-1.746zm0 .62c.437 0 .738.275.804.787h-1.675c.067-.444.367-.788.87-.788zm17.455 1.098v-2.948h-.703v1.714c-.234-.308-.57-.48-1.007-.48-.905 0-1.608.72-1.608 1.714 0 .995.703 1.714 1.608 1.714.468 0 .804-.172 1.007-.48v.412h.703v-1.646zm-2.58 0c0-.583.367-1.063.971-1.063.57 0 .972.448.972 1.063 0 .583-.402 1.063-.971 1.063-.605-.036-.972-.484-.972-1.063zm-23.52 0V27.64h-.703v.412c-.234-.308-.57-.48-1.007-.48-.906 0-1.608.72-1.608 1.714 0 .995.702 1.714 1.608 1.714.468 0 .804-.172 1.007-.48v.412h.702v-1.646zm-2.612 0c0-.583.367-1.063.972-1.063.57 0 .972.448.972 1.063 0 .583-.402 1.063-.972 1.063-.605-.036-.972-.484-.972-1.063z" fill="#000"/><path d="M24.761 2.64H14.207v19.408h10.554V2.64z" fill="#FF5A00"/><path d="M14.91 12.344c0-3.943 1.811-7.442 4.59-9.703C17.455.995 14.875 0 12.06 0 5.395 0 0 5.52 0 12.344c0 6.823 5.394 12.344 12.06 12.344 2.815 0 5.395-.995 7.44-2.64-2.783-2.23-4.59-5.761-4.59-9.704z" fill="#EB001B"/><path d="M39 12.344c0 6.823-5.394 12.344-12.06 12.344-2.815 0-5.395-.995-7.44-2.64 2.814-2.265 4.59-5.761 4.59-9.704 0-3.943-1.811-7.442-4.59-9.703A11.804 11.804 0 0126.935 0C33.605 0 39 5.557 39 12.344z" fill="#F79E1B"/></svg>