<svg width="128" height="74" viewBox="0 0 128 74" xmlns="http://www.w3.org/2000/svg"><path d="M122.622 74l-9.092-1.893c.572-2.71.936-5.48 1.066-8.242l9.281.445a60.742 60.742 0 01-1.255 9.69z" fill="#2EA255"/><path d="M114.629 59.5a51.626 51.626 0 00-3.07-15.858l8.741-3.117a60.527 60.527 0 013.616 18.66l-9.287.315z" fill="#4CBB65"/><path d="M9.287 59.442L0 59.12a60.56 60.56 0 013.635-18.653l8.735 3.123a51.398 51.398 0 00-3.083 15.852z" fill="#F55E2E"/><path d="M109.895 39.605a52.28 52.28 0 00-9.014-13.464l6.861-6.2a61.365 61.365 0 0110.6 15.832l-8.447 3.831z" fill="#73AC2B"/><path d="M14.04 39.56L5.6 35.721a61.361 61.361 0 0110.613-15.82l6.855 6.207a52.225 52.225 0 00-9.027 13.45z" fill="#FFA41C"/><path d="M97.772 23.044a52.76 52.76 0 00-13.527-9.02l3.935-8.332a61.869 61.869 0 0115.907 10.604l-6.315 6.748z" fill="#8AC044"/><path d="M26.176 23.012l-6.308-6.754a62.003 62.003 0 0115.92-10.592l3.928 8.338a52.563 52.563 0 00-13.54 9.008z" fill="#EDAA28"/><path d="M80.18 12.35a52.913 52.913 0 00-15.99-3.157L64.579 0a62.343 62.343 0 0118.814 3.715L80.18 12.35z" fill="#FCED1B"/><path d="M43.78 12.33l-3.199-8.634A62.364 62.364 0 0159.402 0l.377 9.188a52.978 52.978 0 00-15.998 3.142z" fill="#EDD81B"/><path d="M1.294 74A60.727 60.727 0 01.04 64.316l9.28-.444c.137 2.762.495 5.53 1.073 8.242L1.294 74z" fill="#9B2525"/></svg>