<svg width="76" height="20" viewBox="0 0 76 20" fill="none" xmlns="http://www.w3.org/2000/svg"><path d="M8.65.844C3.338 1.417-.5 6.144.08 11.41c.578 5.26 5.352 9.06 10.671 8.486 5.314-.573 9.15-5.299 8.572-10.565C18.738 4.077 13.964.278 8.65.844z" fill="url(#paint0_radial_4_720)"/><path d="M8.65.844C3.338 1.417-.5 6.144.08 11.41c.578 5.26 5.352 9.06 10.671 8.486 5.314-.573 9.15-5.299 8.572-10.565C18.738 4.077 13.964.278 8.65.844z" fill="url(#paint1_radial_4_720)"/><path d="M10.329 14.23L75.753 3.452c.247-.039.208-.4-.046-.386l-66.23 3.4s0 .006-.007.012c-.065.007-.13.007-.201.013-2.166.232-3.733 2.164-3.5 4.308.235 2.144 2.186 3.696 4.351 3.464.072-.013.137-.026.209-.033z" fill="url(#paint2_linear_4_720)"/><path opacity=".41" d="M10.283 14.282c.007 0 .007 0 0 0L75.831 4.244c.247-.032.208-.4-.04-.386L9.523 6.504s0 .007-.006.013c-.065 0-.13 0-.202.006-2.172.206-3.759 2.119-3.55 4.27.207 2.15 2.139 3.72 4.311 3.508.078 0 .143-.012.208-.019z" fill="#000"/><path d="M10.329 14.23L75.753 3.452c.247-.039.208-.4-.046-.386l-66.23 3.4s0 .006-.007.012c-.065.007-.13.007-.201.013-2.166.232-3.733 2.164-3.5 4.308.235 2.144 2.186 3.696 4.351 3.464.072-.013.137-.026.209-.033z" fill="#E6E6E6"/><path d="M9.412 7.772a2.624 2.624 0 00-2.342 2.885c.156 1.436 1.464 2.473 2.914 2.318a2.624 2.624 0 002.341-2.885c-.156-1.435-1.463-2.472-2.913-2.318z" fill="#969696"/><defs><radialGradient id="paint0_radial_4_720" cx="0" cy="0" r="1" gradientUnits="userSpaceOnUse" gradientTransform="matrix(1.04816 9.52555 -9.61898 1.05844 9.698 10.373)"><stop stop-color="#1E1E1E"/><stop offset=".28" stop-color="#0F0F0F"/><stop offset=".627" stop-color="#040404"/><stop offset="1"/></radialGradient><radialGradient id="paint1_radial_4_720" cx="0" cy="0" r="1" gradientUnits="userSpaceOnUse" gradientTransform="matrix(1.04816 9.52555 -9.61898 1.05844 9.698 10.373)"><stop stop-color="#1E1E1E"/><stop offset=".28" stop-color="#0F0F0F"/><stop offset=".627" stop-color="#040404"/><stop offset="1"/></radialGradient><linearGradient id="paint2_linear_4_720" x1="40.416" y1="3.127" x2="41.255" y2="10.902" gradientUnits="userSpaceOnUse"><stop stop-color="#E3E3E3"/><stop offset=".119" stop-color="#E8E8E8"/><stop offset=".488" stop-color="#C5C5C5"/><stop offset=".512" stop-color="#C3C3C3"/><stop offset=".74" stop-color="#D0D0D0"/><stop offset=".903" stop-color="#FCFCFC"/><stop offset=".92" stop-color="#F8F8F8"/><stop offset=".936" stop-color="#EDEDED"/><stop offset=".952" stop-color="#D9D9D9"/><stop offset=".968" stop-color="#BEBEBE"/><stop offset=".983" stop-color="#9C9C9C"/><stop offset=".99" stop-color="#8A8A8A"/></linearGradient></defs></svg>