<svg width="55" height="19" viewBox="0 0 55 19" fill="none" xmlns="http://www.w3.org/2000/svg"><path d="M23.843 18.2h-4.488L22.16.81h4.488L23.843 18.2zM15.58.81L11.3 12.772l-.506-2.575-1.51-7.82S9.103.811 7.156.811H.083L0 1.105s2.163.454 4.694 1.988l3.9 15.107h4.676L20.41.81h-4.83zm35.3 17.39H55L51.407.81H47.8c-1.666 0-2.072 1.296-2.072 1.296L39.034 18.2h4.679l.935-2.583h5.705l.526 2.583zm-4.94-6.151L48.3 5.54l1.326 6.508h-3.684zm-6.555-7.057l.64-3.734S38.05.5 35.99.5c-2.227 0-7.516.982-7.516 5.757 0 4.492 6.208 4.548 6.208 6.908 0 2.36-5.568 1.937-7.406.449l-.667 3.904s2.004.982 5.066.982c3.063 0 7.683-1.6 7.683-5.954 0-4.52-6.263-4.942-6.263-6.907 0-1.967 4.37-1.714 6.291-.647z" fill="#2566AF"/><path d="M10.795 10.196l-1.51-7.82S9.103.811 7.156.811H.083L0 1.105s3.4.71 6.66 3.374c3.119 2.545 4.135 5.717 4.135 5.717z" fill="#E6A540"/></svg>