<svg width="24" height="25" viewBox="0 0 24 25" fill="none" xmlns="http://www.w3.org/2000/svg">
<path fill-rule="evenodd" clip-rule="evenodd" d="M22.5 12.5C22.5 9.71523 21.3938 7.04451 19.4246 5.07538C17.4555 3.10625 14.7848 2 12 2C9.21523 2 6.54451 3.10625 4.57538 5.07538C2.60625 7.04451 1.5 9.71522 1.5 12.5C1.5 15.2848 2.60625 17.9555 4.57538 19.9246C6.54451 21.8938 9.21523 23 12 23C14.7848 23 17.4555 21.8938 19.4246 19.9246C21.3938 17.9555 22.5 15.2848 22.5 12.5V12.5ZM1.04907e-06 12.5C1.3273e-06 9.3174 1.26428 6.26515 3.51472 4.01472C5.76516 1.76428 8.8174 0.499999 12 0.499999C15.1826 0.499999 18.2348 1.76428 20.4853 4.01472C22.7357 6.26515 24 9.3174 24 12.5C24 15.6826 22.7357 18.7348 20.4853 20.9853C18.2348 23.2357 15.1826 24.5 12 24.5C8.8174 24.5 5.76515 23.2357 3.51472 20.9853C1.26428 18.7348 7.70842e-07 15.6826 1.04907e-06 12.5V12.5ZM17.25 13.25C17.4489 13.25 17.6397 13.171 17.7803 13.0303C17.921 12.8897 18 12.6989 18 12.5C18 12.3011 17.921 12.1103 17.7803 11.9697C17.6397 11.829 17.4489 11.75 17.25 11.75L8.5605 11.75L11.781 8.531C11.8507 8.46127 11.906 8.37848 11.9438 8.28737C11.9815 8.19627 12.0009 8.09861 12.0009 8C12.0009 7.90138 11.9815 7.80373 11.9438 7.71262C11.906 7.62151 11.8507 7.53873 11.781 7.469C11.7113 7.39927 11.6285 7.34395 11.5374 7.30621C11.4463 7.26848 11.3486 7.24905 11.25 7.24905C11.1514 7.24905 11.0537 7.26848 10.9626 7.30621C10.8715 7.34395 10.7887 7.39927 10.719 7.469L6.219 11.969C6.14916 12.0387 6.09374 12.1214 6.05593 12.2125C6.01812 12.3037 5.99866 12.4013 5.99866 12.5C5.99866 12.5986 6.01812 12.6963 6.05593 12.7874C6.09374 12.8786 6.14916 12.9613 6.219 13.031L10.719 17.531C10.7887 17.6007 10.8715 17.656 10.9626 17.6938C11.0537 17.7315 11.1514 17.7509 11.25 17.7509C11.3486 17.7509 11.4463 17.7315 11.5374 17.6938C11.6285 17.656 11.7113 17.6007 11.781 17.531C11.8507 17.4613 11.906 17.3785 11.9438 17.2874C11.9815 17.1963 12.0009 17.0986 12.0009 17C12.0009 16.9014 11.9815 16.8037 11.9438 16.7126C11.906 16.6215 11.8507 16.5387 11.781 16.469L8.5605 13.25L17.25 13.25Z" fill="#979797"/>
</svg>
