<svg width="32" height="32" viewBox="0 0 32 32" fill="none"
								xmlns="http://www.w3.org/2000/svg">
								<path
									d="M14.175 7H17.875L17.25 18.9151H14.775L14.175 7ZM16.025 25C15.4417 25 14.9583 24.8133 14.575 24.4399C14.1917 24.0495 14 23.5743 14 23.0141C14 22.454 14.1917 21.9873 14.575 21.6139C14.9583 21.2405 15.4417 21.0537 16.025 21.0537C16.5917 21.0537 17.0583 21.2405 17.425 21.6139C17.8083 21.9873 18 22.454 18 23.0141C18 23.5743 17.8083 24.0495 17.425 24.4399C17.0583 24.8133 16.5917 25 16.025 25Z"
									fill="black" />
								<rect x="1" y="1" width="30" height="30" rx="9" stroke-width="2" stroke="black" />
							</svg>