<svg width="14" height="11" viewBox="0 0 14 11" fill="none" xmlns="http://www.w3.org/2000/svg">
<path d="M9.19222 0.42334C9.06491 0.651345 8.95146 0.886814 8.85248 1.12847C7.87989 0.974654 6.88917 0.974654 5.91658 1.12847C5.8176 0.886814 5.70415 0.651345 5.57684 0.42334C4.66068 0.579879 3.77005 0.860223 2.9294 1.25667C1.42616 3.42609 0.744425 6.05985 1.00632 8.68616C1.98596 9.42261 3.08546 9.98429 4.25632 10.3464C4.52294 9.99424 4.76088 9.62125 4.96786 9.23103C4.58586 9.09019 4.21869 8.91197 3.87171 8.69898C3.96688 8.63566 4.0569 8.56493 4.14094 8.48744C5.15277 8.97482 6.26143 9.22792 7.38453 9.22792C8.50763 9.22792 9.61629 8.97482 10.6281 8.48744C10.7179 8.56437 10.8076 8.63488 10.8974 8.69898C10.5485 8.91029 10.1817 9.09047 9.8012 9.23744C9.9996 9.63651 10.2312 10.0182 10.4935 10.3785C11.6629 10.0176 12.7605 9.45577 13.7371 8.71821C14.0053 6.09142 13.323 3.45551 11.814 1.28872C10.9828 0.884069 10.101 0.593 9.19222 0.42334ZM5.25632 7.18616C4.93554 7.16313 4.63616 7.01673 4.42102 6.77768C4.20587 6.53863 4.09171 6.22553 4.10248 5.90411C4.09008 5.58226 4.20369 5.26826 4.41915 5.02886C4.63462 4.78945 4.93495 4.64351 5.25632 4.62206C5.5777 4.64351 5.87803 4.78945 6.0935 5.02886C6.30896 5.26826 6.42257 5.58226 6.41017 5.90411C6.42257 6.22596 6.30896 6.53995 6.0935 6.77936C5.87803 7.01876 5.5777 7.1647 5.25632 7.18616ZM9.51273 7.18616C9.19195 7.16313 8.89257 7.01673 8.67743 6.77768C8.46229 6.53863 8.34812 6.22553 8.35889 5.90411C8.34649 5.58226 8.4601 5.26826 8.67556 5.02886C8.89103 4.78945 9.19136 4.64351 9.51273 4.62206C9.8347 4.64191 10.136 4.78738 10.3518 5.02715C10.5676 5.26692 10.6806 5.58183 10.6666 5.90411C10.6806 6.22638 10.5676 6.54129 10.3518 6.78107C10.136 7.02084 9.8347 7.16631 9.51273 7.18616Z" fill="#BBC2C9"/>
</svg>
