<svg width="14" height="14" viewBox="0 0 14 14" fill="none" xmlns="http://www.w3.org/2000/svg">
<path d="M7.38462 0.974609C9.12629 0.974609 9.3436 0.98102 10.0269 1.01307C10.7096 1.04512 11.1744 1.15217 11.5833 1.31115C12.0064 1.47397 12.3628 1.69448 12.7192 2.05025C13.0452 2.3707 13.2974 2.75832 13.4583 3.18615C13.6167 3.59448 13.7244 4.05987 13.7564 4.74256C13.7865 5.42589 13.7949 5.6432 13.7949 7.38487C13.7949 9.12653 13.7885 9.34384 13.7564 10.0272C13.7244 10.7099 13.6167 11.1746 13.4583 11.5836C13.2979 12.0116 13.0456 12.3994 12.7192 12.7195C12.3987 13.0453 12.0111 13.2975 11.5833 13.4586C11.175 13.6169 10.7096 13.7246 10.0269 13.7567C9.3436 13.7868 9.12629 13.7951 7.38462 13.7951C5.64296 13.7951 5.42565 13.7887 4.74231 13.7567C4.05962 13.7246 3.59488 13.6169 3.1859 13.4586C2.75791 13.298 2.37022 13.0457 2.05001 12.7195C1.72398 12.3991 1.47176 12.0114 1.3109 11.5836C1.15193 11.1753 1.04488 10.7099 1.01283 10.0272C0.982699 9.34384 0.974365 9.12653 0.974365 7.38487C0.974365 5.6432 0.980775 5.42589 1.01283 4.74256C1.04488 4.05922 1.15193 3.59512 1.3109 3.18615C1.47131 2.75806 1.7236 2.37033 2.05001 2.05025C2.37031 1.72412 2.75797 1.47187 3.1859 1.31115C3.59488 1.15217 4.05898 1.04512 4.74231 1.01307C5.42565 0.982943 5.64296 0.974609 7.38462 0.974609ZM7.38462 4.17974C6.53457 4.17974 5.71933 4.51742 5.11825 5.1185C4.51718 5.71958 4.17949 6.53481 4.17949 7.38487C4.17949 8.23492 4.51718 9.05016 5.11825 9.65123C5.71933 10.2523 6.53457 10.59 7.38462 10.59C8.23467 10.59 9.04991 10.2523 9.65099 9.65123C10.2521 9.05016 10.5898 8.23492 10.5898 7.38487C10.5898 6.53481 10.2521 5.71958 9.65099 5.1185C9.04991 4.51742 8.23467 4.17974 7.38462 4.17974ZM11.5513 4.01948C11.5513 3.80697 11.4669 3.60316 11.3166 3.45289C11.1663 3.30262 10.9625 3.2182 10.75 3.2182C10.5375 3.2182 10.3337 3.30262 10.1834 3.45289C10.0331 3.60316 9.94872 3.80697 9.94872 4.01948C9.94872 4.23199 10.0331 4.4358 10.1834 4.58607C10.3337 4.73634 10.5375 4.82076 10.75 4.82076C10.9625 4.82076 11.1663 4.73634 11.3166 4.58607C11.4669 4.4358 11.5513 4.23199 11.5513 4.01948ZM7.38462 5.46179C7.89465 5.46179 8.3838 5.6644 8.74444 6.02504C9.10509 6.38569 9.3077 6.87483 9.3077 7.38487C9.3077 7.8949 9.10509 8.38404 8.74444 8.74469C8.3838 9.10533 7.89465 9.30794 7.38462 9.30794C6.87459 9.30794 6.38545 9.10533 6.0248 8.74469C5.66415 8.38404 5.46154 7.8949 5.46154 7.38487C5.46154 6.87483 5.66415 6.38569 6.0248 6.02504C6.38545 5.6644 6.87459 5.46179 7.38462 5.46179Z" fill="#BBC2C9"/>
</svg>
