<svg viewBox="0 0 88 15" fill="none" xmlns="http://www.w3.org/2000/svg">
					<path
						d="M14.1024 0V14.5653H11.9007V5.54385L7.74558 14.5653H6.3568L2.19044 5.54385V14.5653H0V0H1.84042L7.04555 11.2119L12.2507 0H14.1024Z" />
					<path
						d="M26.2401 11.5619C26.067 11.991 25.8487 12.3937 25.5853 12.7701C25.3218 13.1464 25.0057 13.4776 24.6368 13.7637C24.268 14.0497 23.8389 14.2755 23.3497 14.4411C22.8679 14.5992 22.326 14.6782 21.7238 14.6782C21.0313 14.6782 20.3839 14.5503 19.7817 14.2943C19.1795 14.0309 18.6526 13.6658 18.201 13.1991C17.7494 12.7249 17.3956 12.1641 17.1396 11.5168C16.8837 10.8694 16.7558 10.1506 16.7558 9.36019C16.7558 8.57735 16.8837 7.86226 17.1396 7.21491C17.3956 6.56756 17.7418 6.01054 18.1784 5.54385C18.615 5.06963 19.1306 4.70079 19.7253 4.43734C20.3199 4.17388 20.9485 4.04216 21.6109 4.04216C22.2733 4.04216 22.9018 4.17388 23.4964 4.43734C24.0911 4.70079 24.6067 5.06963 25.0433 5.54385C25.4799 6.01054 25.8261 6.56756 26.0821 7.21491C26.338 7.86226 26.466 8.57735 26.466 9.36019C26.466 9.48063 26.4584 9.60106 26.4434 9.7215C26.4283 9.83441 26.4133 9.93226 26.3982 10.0151C26.3832 10.1204 26.3681 10.2108 26.3531 10.286H18.9462C18.9763 10.6097 19.0704 10.9183 19.2285 11.2119C19.3865 11.5055 19.5823 11.7652 19.8156 11.991C20.0565 12.2093 20.3425 12.3862 20.6737 12.5217C21.0049 12.6496 21.3549 12.7136 21.7238 12.7136C22.3561 12.7136 22.8566 12.5781 23.2255 12.3071C23.6018 12.0361 23.8728 11.7877 24.0384 11.5619H26.2401ZM21.6109 6.00678C20.9183 6.00678 20.3312 6.24389 19.8495 6.71811C19.3753 7.1848 19.0742 7.79828 18.9462 8.55853H24.5013C24.3809 7.8058 24.0723 7.19233 23.5755 6.71811C23.0862 6.24389 22.4313 6.00678 21.6109 6.00678Z" />
					<path
						d="M39.1909 4.04216C39.6877 4.04216 40.1506 4.14001 40.5796 4.33572C41.0087 4.5239 41.3851 4.80618 41.7087 5.18254C42.0324 5.55138 42.2883 6.00302 42.4765 6.53745C42.6722 7.06437 42.7701 7.65902 42.7701 8.32142V14.5653H40.6925V8.32142C40.6925 7.62891 40.4931 7.07189 40.0941 6.65036C39.7027 6.22131 39.2473 6.00678 38.7279 6.00678C38.201 6.00678 37.7418 6.22131 37.3504 6.65036C36.959 7.07189 36.7633 7.62891 36.7633 8.32142V14.5653H34.6745V8.32142C34.6745 7.62891 34.4788 7.07189 34.0873 6.65036C33.6959 6.22131 33.2368 6.00678 32.7099 6.00678C32.1829 6.00678 31.7238 6.22131 31.3324 6.65036C30.9409 7.07189 30.7452 7.62891 30.7452 8.32142V14.5653H28.6677V4.15507H30.1694L30.6323 5.20512C30.8205 4.98683 31.0426 4.79112 31.2985 4.61799C31.5168 4.4825 31.784 4.35454 32.1001 4.2341C32.4163 4.10614 32.7738 4.04216 33.1728 4.04216C33.6696 4.04216 34.0949 4.12872 34.4487 4.30185C34.8024 4.46745 35.1035 4.65187 35.3519 4.8551C35.6304 5.1035 35.8675 5.37449 36.0633 5.66805C36.0633 5.66805 36.131 5.58525 36.2665 5.41965C36.3945 5.26158 36.5902 5.07716 36.8536 4.86639C37.1171 4.65563 37.4408 4.46745 37.8246 4.30185C38.2085 4.12872 38.6639 4.04216 39.1909 4.04216Z" />
					<path
						d="M52.8416 9.36019C52.8416 8.86339 52.7588 8.41175 52.5932 8.00528C52.4351 7.5988 52.2244 7.24502 51.9609 6.94393C51.6975 6.64284 51.3888 6.41325 51.035 6.25518C50.6813 6.08958 50.32 6.00678 49.9511 6.00678C49.5823 6.00678 49.221 6.08958 48.8672 6.25518C48.5134 6.41325 48.2048 6.64284 47.9413 6.94393C47.6779 7.24502 47.4633 7.60257 47.2977 8.01657C47.1397 8.42304 47.0606 8.87092 47.0606 9.36019C47.0606 9.85699 47.1397 10.3086 47.2977 10.7151C47.4633 11.1216 47.6779 11.4754 47.9413 11.7765C48.2048 12.0775 48.5134 12.3109 48.8672 12.4765C49.221 12.6346 49.5823 12.7136 49.9511 12.7136C50.32 12.7136 50.6813 12.6346 51.035 12.4765C51.3888 12.3109 51.6975 12.0775 51.9609 11.7765C52.2244 11.4754 52.4351 11.1216 52.5932 10.7151C52.7588 10.3086 52.8416 9.85699 52.8416 9.36019ZM54.9191 9.36019C54.9191 10.143 54.7912 10.8619 54.5352 11.5168C54.2868 12.1641 53.9331 12.7249 53.4739 13.1991C53.0223 13.6658 52.4953 14.0309 51.8932 14.2943C51.291 14.5503 50.6436 14.6782 49.9511 14.6782C49.2586 14.6782 48.6113 14.5503 48.0091 14.2943C47.4069 14.0309 46.8762 13.6658 46.4171 13.1991C45.9654 12.7249 45.6116 12.1641 45.3557 11.5168C45.1073 10.8694 44.9831 10.1506 44.9831 9.36019C44.9831 8.57735 45.1073 7.86226 45.3557 7.21491C45.6116 6.56756 45.9654 6.01054 46.4171 5.54385C46.8762 5.06963 47.4069 4.70079 48.0091 4.43734C48.6113 4.17388 49.2586 4.04216 49.9511 4.04216C50.6436 4.04216 51.291 4.17388 51.8932 4.43734C52.4953 4.70079 53.0223 5.06963 53.4739 5.54385C53.9331 6.01054 54.2868 6.56756 54.5352 7.21491C54.7912 7.86226 54.9191 8.57735 54.9191 9.36019Z" />
					<path
						d="M61.7389 4.04216C61.8593 4.04216 61.9571 4.04968 62.0324 4.06474C62.1152 4.07979 62.1905 4.09485 62.2582 4.1099C62.3185 4.12496 62.3787 4.14001 62.4389 4.15507V6.24389C62.3787 6.22884 62.3072 6.21378 62.2244 6.19873C62.1491 6.18367 62.0701 6.16862 61.9873 6.15356C61.9045 6.13098 61.8217 6.11969 61.7389 6.11969C61.3851 6.11969 61.0539 6.1912 60.7453 6.33422C60.4366 6.46971 60.1657 6.65413 59.9323 6.88747C59.7065 7.12082 59.5258 7.3918 59.3903 7.70042C59.2624 8.00904 59.1984 8.33271 59.1984 8.67144V14.5653H57.1209V4.15507H58.6226L59.0855 5.20512C59.2737 4.98683 59.4957 4.79112 59.7517 4.61799C59.9699 4.4825 60.2447 4.35454 60.5759 4.2341C60.9071 4.10614 61.2948 4.04216 61.7389 4.04216Z" />
					<path
						d="M66.3569 14.5653H64.2793V4.15507H66.3569V14.5653ZM65.3181 2.54046C64.9643 2.54046 64.6632 2.42002 64.4148 2.17915C64.1664 1.93075 64.0422 1.6259 64.0422 1.26459C64.0422 0.910802 64.1664 0.613474 64.4148 0.372601C64.6632 0.1242 64.9643 0 65.3181 0C65.6719 0 65.973 0.1242 66.2214 0.372601C66.4698 0.613474 66.594 0.910802 66.594 1.26459C66.594 1.61837 66.4698 1.91946 66.2214 2.16786C65.973 2.41626 65.6719 2.54046 65.3181 2.54046Z" />
					<path
						d="M78.1559 11.5619C77.9828 11.991 77.7645 12.3937 77.501 12.7701C77.2376 13.1464 76.9214 13.4776 76.5526 13.7637C76.1837 14.0497 75.7547 14.2755 75.2654 14.4411C74.7837 14.5992 74.2417 14.6782 73.6395 14.6782C72.947 14.6782 72.2996 14.5503 71.6975 14.2943C71.0953 14.0309 70.5684 13.6658 70.1167 13.1991C69.6651 12.7249 69.3113 12.1641 69.0554 11.5168C68.7995 10.8694 68.6715 10.1506 68.6715 9.36019C68.6715 8.57735 68.7995 7.86226 69.0554 7.21491C69.3113 6.56756 69.6576 6.01054 70.0942 5.54385C70.5307 5.06963 71.0464 4.70079 71.641 4.43734C72.2357 4.17388 72.8642 4.04216 73.5266 4.04216C74.189 4.04216 74.8175 4.17388 75.4122 4.43734C76.0068 4.70079 76.5225 5.06963 76.959 5.54385C77.3956 6.01054 77.7419 6.56756 77.9978 7.21491C78.2537 7.86226 78.3817 8.57735 78.3817 9.36019C78.3817 9.48063 78.3742 9.60106 78.3591 9.7215C78.3441 9.83441 78.329 9.93226 78.314 10.0151C78.2989 10.1204 78.2839 10.2108 78.2688 10.286H70.8619C70.892 10.6097 70.9861 10.9183 71.1442 11.2119C71.3023 11.5055 71.498 11.7652 71.7313 11.991C71.9722 12.2093 72.2583 12.3862 72.5895 12.5217C72.9207 12.6496 73.2707 12.7136 73.6395 12.7136C74.2718 12.7136 74.7724 12.5781 75.1412 12.3071C75.5176 12.0361 75.7886 11.7877 75.9542 11.5619H78.1559ZM73.5266 6.00678C72.8341 6.00678 72.247 6.24389 71.7652 6.71811C71.291 7.1848 70.9899 7.79828 70.8619 8.55853H76.4171C76.2966 7.8058 75.988 7.19233 75.4912 6.71811C75.0019 6.24389 74.3471 6.00678 73.5266 6.00678Z" />
					<path
						d="M82.0851 11.2119C82.1454 11.6711 82.3222 12.0361 82.6158 12.3071C82.9094 12.5781 83.3497 12.7136 83.9369 12.7136C84.5842 12.7136 85.0547 12.5932 85.3482 12.3523C85.6418 12.1039 85.7886 11.8028 85.7886 11.449C85.7886 11.1404 85.6493 10.907 85.3708 10.749C85.0923 10.5834 84.746 10.4479 84.332 10.3425C83.9256 10.2296 83.4814 10.1167 82.9997 10.0038C82.5255 9.88334 82.0851 9.71774 81.6787 9.50697C81.2722 9.28868 80.9297 8.99888 80.6512 8.63757C80.3727 8.27626 80.2334 7.78698 80.2334 7.16975C80.2334 6.74069 80.3162 6.33798 80.4818 5.96162C80.6549 5.57772 80.8958 5.24276 81.2044 4.95672C81.5131 4.67069 81.8857 4.44863 82.3222 4.29056C82.7664 4.12496 83.2669 4.04216 83.8239 4.04216C85.0434 4.04216 85.9655 4.33572 86.5902 4.92285C87.2225 5.50998 87.5725 6.29658 87.6403 7.28266H85.5515C85.4912 6.92887 85.3181 6.62778 85.0321 6.37938C84.746 6.13098 84.3433 6.00678 83.8239 6.00678C83.297 6.00678 82.8943 6.12722 82.6158 6.36809C82.3373 6.60896 82.198 6.87618 82.198 7.16975C82.198 7.47837 82.3373 7.71548 82.6158 7.88108C82.8943 8.03915 83.2368 8.17088 83.6433 8.27626C84.0573 8.38164 84.5014 8.49455 84.9756 8.61499C85.4498 8.7279 85.8902 8.8935 86.2967 9.11179C86.7107 9.32255 87.0569 9.61235 87.3354 9.98119C87.6139 10.3425 87.7532 10.8318 87.7532 11.449C87.7532 12.3749 87.422 13.1464 86.7596 13.7637C86.0972 14.3734 85.1563 14.6782 83.9369 14.6782C82.6572 14.6782 81.6975 14.3771 81.0577 13.7749C80.4178 13.1728 80.0678 12.3184 80.0076 11.2119H82.0851Z" />
				</svg>