<svg width="9" height="15" viewBox="0 0 9 15" fill="none"
								xmlns="http://www.w3.org/2000/svg">
								<path
									d="M2 14.5C1.76635 14.5005 1.53991 14.4191 1.36 14.27C1.25874 14.1861 1.17504 14.083 1.11369 13.9666C1.05233 13.8503 1.01454 13.723 1.00246 13.592C0.990385 13.461 1.00427 13.3289 1.04331 13.2033C1.08236 13.0777 1.1458 12.9611 1.23 12.86L5.71 7.5L1.39 2.13C1.30693 2.02771 1.2449 1.91002 1.20747 1.78368C1.17004 1.65734 1.15794 1.52485 1.17188 1.39382C1.18582 1.26279 1.22552 1.13581 1.28869 1.02017C1.35187 0.904536 1.43727 0.802524 1.54 0.720002C1.64346 0.628965 1.76463 0.560298 1.89589 0.518308C2.02715 0.476319 2.16568 0.461916 2.30277 0.476001C2.43987 0.490085 2.57257 0.532355 2.69255 0.600157C2.81253 0.667959 2.9172 0.759829 3 0.870002L7.83 6.87C7.97708 7.04893 8.05749 7.27338 8.05749 7.505C8.05749 7.73663 7.97708 7.96107 7.83 8.14L2.83 14.14C2.72968 14.261 2.60225 14.3567 2.45804 14.4192C2.31383 14.4818 2.1569 14.5095 2 14.5Z"
									fill="white" />
							</svg>