<svg width="128" height="74" viewBox="0 0 128 74" xmlns="http://www.w3.org/2000/svg">
<path d="M122.622 74L113.53 72.107C114.102 69.3963 114.466 66.6277 114.596 63.8655L123.877 64.3097C123.721 67.5613 123.298 70.8193 122.622 74Z" fill="#2EA255"/>
<path d="M114.629 59.5C114.44 54.0593 113.406 48.7281 111.559 43.6415L120.3 40.5251C122.479 46.5067 123.695 52.7844 123.916 59.1845L114.629 59.5Z" fill="#4CBB65"/>
<path d="M9.28686 59.4421L0 59.1202C0.227619 52.7266 1.45026 46.4488 3.6354 40.4673L12.3695 43.5901C10.516 48.6702 9.47546 54.0079 9.28686 59.4421Z" fill="#F55E2E"/>
<path d="M109.895 39.6045C107.618 34.6853 104.581 30.1589 100.881 26.1411L107.742 19.9407C112.093 24.6602 115.663 29.985 118.342 35.7734L109.895 39.6045Z" fill="#73AC2B"/>
<path d="M14.0408 39.5593L5.59943 35.7219C8.28533 29.9399 11.8557 24.6151 16.213 19.902L23.0676 26.1089C19.3606 30.1202 16.3235 34.6466 14.0408 39.5593Z" fill="#FFA41C"/>
<path d="M97.7722 23.0441C93.7466 19.3483 89.1942 16.3156 84.2451 14.0235L88.1797 5.69177C94.0067 8.38315 99.359 11.9566 104.087 16.2963L97.7722 23.0441Z" fill="#8AC044"/>
<path d="M26.1762 23.0119L19.8679 16.2577C24.6024 11.918 29.9612 8.35739 35.7883 5.66602L39.7163 14.0041C34.7542 16.2899 30.2018 19.3225 26.1762 23.0119Z" fill="#EDAA28"/>
<path d="M80.1805 12.3494C75.0623 10.4822 69.684 9.41982 64.1886 9.19447L64.5788 0C71.0367 0.263987 77.3645 1.51953 83.3931 3.71513L80.1805 12.3494Z" fill="#FCED1B"/>
<path d="M43.7809 12.3301L40.5812 3.69581C46.6099 1.50666 52.9442 0.257548 59.4021 0L59.7793 9.18803C54.2839 9.40694 48.9056 10.4693 43.7809 12.3301Z" fill="#EDD81B"/>
<path d="M1.29416 74C0.617804 70.8193 0.195083 67.5613 0.0390015 64.3162L9.31936 63.8719C9.45593 66.6342 9.81362 69.4028 10.3924 72.1135L1.29416 74Z" fill="#9B2525"/>
</svg>
