<svg width="39" height="31" viewBox="0 0 39 31" fill="none" xmlns="http://www.w3.org/2000/svg">
<path d="M7.06856 30.932V28.8746C7.06856 28.0876 6.60018 27.5723 5.79614 27.5723C5.39412 27.5723 4.95697 27.7081 4.65643 28.1555C4.42224 27.78 4.08657 27.5723 3.58307 27.5723C3.2474 27.5723 2.91173 27.6762 2.64632 28.0517V27.6402H1.94376V30.932H2.64632V29.1143C2.64632 28.5311 2.94686 28.2554 3.41523 28.2554C3.88361 28.2554 4.1178 28.563 4.1178 29.1143V30.932H4.82036V29.1143C4.82036 28.5311 5.15603 28.2554 5.58927 28.2554C6.05765 28.2554 6.29183 28.563 6.29183 29.1143V30.932H7.06856ZM17.4899 27.6402H16.3502V26.6455H15.6476V27.6402H15.0114V28.2914H15.6476V29.8014C15.6476 30.5564 15.9482 30.9999 16.7522 30.9999C17.0527 30.9999 17.3884 30.896 17.6226 30.7602L17.4196 30.141C17.2167 30.2768 16.9825 30.3128 16.8147 30.3128C16.479 30.3128 16.3463 30.105 16.3463 29.7655V28.2914H17.486V27.6402H17.4899ZM23.4539 27.5683C23.0518 27.5683 22.7825 27.776 22.6147 28.0477V27.6362H21.9121V30.928H22.6147V29.0744C22.6147 28.5271 22.8489 28.2155 23.286 28.2155C23.4187 28.2155 23.5866 28.2514 23.7232 28.2834L23.9261 27.5963C23.7856 27.5683 23.5866 27.5683 23.4539 27.5683ZM14.4416 27.9119C14.1059 27.6722 13.6375 27.5683 13.134 27.5683C12.33 27.5683 11.7952 27.9798 11.7952 28.6309C11.7952 29.1782 12.1973 29.4898 12.8998 29.5897L13.2355 29.6256C13.6024 29.6936 13.8053 29.7974 13.8053 29.9692C13.8053 30.2089 13.536 30.3807 13.0677 30.3807C12.5993 30.3807 12.2285 30.2089 11.9943 30.0371L11.6586 30.5844C12.0255 30.8601 12.529 30.9959 13.0325 30.9959C13.9693 30.9959 14.5079 30.5485 14.5079 29.9333C14.5079 29.35 14.0708 29.0424 13.4033 28.9385L13.0677 28.9026C12.7671 28.8666 12.5329 28.7987 12.5329 28.595C12.5329 28.3553 12.7671 28.2195 13.1379 28.2195C13.5399 28.2195 13.942 28.3912 14.1449 28.4951L14.4416 27.9119ZM33.1336 27.5683C32.7316 27.5683 32.4623 27.776 32.2944 28.0477V27.6362H31.5919V30.928H32.2944V29.0744C32.2944 28.5271 32.5286 28.2155 32.9658 28.2155C33.0985 28.2155 33.2663 28.2514 33.4029 28.2834L33.6059 27.6043C33.4693 27.5683 33.2702 27.5683 33.1336 27.5683ZM24.1564 29.2861C24.1564 30.2808 24.8278 30.9999 25.866 30.9999C26.3344 30.9999 26.67 30.896 27.0057 30.6244L26.67 30.0411C26.4007 30.2488 26.1353 30.3487 25.8309 30.3487C25.261 30.3487 24.859 29.9372 24.859 29.2861C24.859 28.6669 25.261 28.2554 25.8309 28.2235C26.1314 28.2235 26.4007 28.3273 26.67 28.5311L27.0057 27.9478C26.67 27.6722 26.3344 27.5723 25.866 27.5723C24.8278 27.5683 24.1564 28.2914 24.1564 29.2861ZM30.6551 29.2861V27.6402H29.9526V28.0517C29.7184 27.7441 29.3827 27.5723 28.9456 27.5723C28.04 27.5723 27.3375 28.2914 27.3375 29.2861C27.3375 30.2808 28.04 30.9999 28.9456 30.9999C29.4139 30.9999 29.7496 30.8281 29.9526 30.5205V30.932H30.6551V29.2861ZM28.0752 29.2861C28.0752 28.7028 28.4421 28.2235 29.047 28.2235C29.6169 28.2235 30.0189 28.6709 30.0189 29.2861C30.0189 29.8693 29.6169 30.3487 29.047 30.3487C28.446 30.3128 28.0752 29.8653 28.0752 29.2861ZM19.6678 27.5683C18.7311 27.5683 18.0598 28.2554 18.0598 29.2821C18.0598 30.3128 18.7311 30.9959 19.703 30.9959C20.1713 30.9959 20.6397 30.8601 21.0105 30.5485L20.6748 30.0331C20.4055 30.2409 20.0699 30.3767 19.7381 30.3767C19.3009 30.3767 18.8677 30.1689 18.7662 29.5897H21.1432C21.1432 29.4858 21.1432 29.4179 21.1432 29.3141C21.1744 28.2554 20.5695 27.5683 19.6678 27.5683ZM19.6678 28.1875C20.105 28.1875 20.4055 28.4631 20.4719 28.9745H18.7974C18.8638 28.5311 19.1643 28.1875 19.6678 28.1875ZM37.1226 29.2861V26.3379H36.42V28.0517C36.1859 27.7441 35.8502 27.5723 35.413 27.5723C34.5075 27.5723 33.8049 28.2914 33.8049 29.2861C33.8049 30.2808 34.5075 30.9999 35.413 30.9999C35.8814 30.9999 36.2171 30.8281 36.42 30.5205V30.932H37.1226V29.2861ZM34.5426 29.2861C34.5426 28.7028 34.9095 28.2235 35.5145 28.2235C36.0844 28.2235 36.4864 28.6709 36.4864 29.2861C36.4864 29.8693 36.0844 30.3487 35.5145 30.3487C34.9095 30.3128 34.5426 29.8653 34.5426 29.2861ZM11.0224 29.2861V27.6402H10.3199V28.0517C10.0857 27.7441 9.75 27.5723 9.31285 27.5723C8.40733 27.5723 7.70477 28.2914 7.70477 29.2861C7.70477 30.2808 8.40733 30.9999 9.31285 30.9999C9.78123 30.9999 10.1169 30.8281 10.3199 30.5205V30.932H11.0224V29.2861ZM8.41123 29.2861C8.41123 28.7028 8.77812 28.2235 9.38311 28.2235C9.95296 28.2235 10.355 28.6709 10.355 29.2861C10.355 29.8693 9.95296 30.3487 9.38311 30.3487C8.77812 30.3128 8.41123 29.8653 8.41123 29.2861Z" fill="black"/>
<path d="M24.7614 2.64062H14.2074V22.0476H24.7614V2.64062Z" fill="#FF5A00"/>
<path d="M14.9099 12.3441C14.9099 8.40116 16.721 4.90167 19.5 2.64059C17.4548 0.994716 14.8748 0 12.0606 0C5.39412 0 0 5.52088 0 12.3441C0 19.1673 5.39412 24.6881 12.0606 24.6881C14.8748 24.6881 17.4548 23.6934 19.5 22.0476C16.7171 19.8184 14.9099 16.287 14.9099 12.3441Z" fill="#EB001B"/>
<path d="M39 12.3441C39 19.1673 33.6059 24.6881 26.9394 24.6881C24.1252 24.6881 21.5452 23.6934 19.5 22.0476C22.3142 19.7825 24.0901 16.287 24.0901 12.3441C24.0901 8.40116 22.279 4.90167 19.5 2.64059C21.5413 0.994716 24.1213 0 26.9354 0C33.6059 0 39 5.55683 39 12.3441Z" fill="#F79E1B"/>
</svg>
