<svg width="76" height="20" viewBox="0 0 76 20" fill="none" xmlns="http://www.w3.org/2000/svg">
<path d="M8.65073 0.844431C3.33745 1.41748 -0.499563 6.14348 0.0792402 11.4103C0.658043 16.6708 5.43154 20.4696 10.7513 19.8965C16.0646 19.3235 19.9016 14.5975 19.3228 9.33064C18.7375 4.07666 13.964 0.277825 8.65073 0.844431Z" fill="url(#paint0_radial_4_720)"/>
<path d="M8.65073 0.844431C3.33745 1.41748 -0.499563 6.14348 0.0792402 11.4103C0.658043 16.6708 5.43154 20.4696 10.7513 19.8965C16.0646 19.3235 19.9016 14.5975 19.3228 9.33064C18.7375 4.07666 13.964 0.277825 8.65073 0.844431Z" fill="url(#paint1_radial_4_720)"/>
<path d="M10.3286 14.2305L75.7529 3.45209C76 3.41346 75.961 3.05289 75.7073 3.06577L9.47668 6.4654C9.47668 6.4654 9.47668 6.47184 9.47018 6.47828C9.40514 6.48471 9.34011 6.48472 9.26857 6.49116C7.10294 6.72295 5.53562 8.65456 5.76974 10.7986C6.00387 12.9427 7.95488 14.4945 10.1205 14.2627C10.1921 14.2498 10.2571 14.2369 10.3286 14.2305Z" fill="url(#paint2_linear_4_720)"/>
<path opacity="0.41" d="M10.2831 14.282C10.2896 14.282 10.2896 14.282 10.2831 14.282L75.8309 4.24408C76.078 4.21189 76.039 3.84488 75.7919 3.85775L9.52218 6.50406C9.52218 6.50406 9.52218 6.5105 9.51567 6.51694C9.45064 6.51694 9.38561 6.51694 9.31407 6.52338C7.14193 6.72941 5.5551 8.64171 5.76321 10.7922C5.97132 12.9428 7.90283 14.5138 10.075 14.3013C10.153 14.3013 10.218 14.2885 10.2831 14.282Z" fill="black"/>
<path d="M10.3286 14.2305L75.7529 3.45209C76 3.41346 75.961 3.05289 75.7073 3.06577L9.47668 6.4654C9.47668 6.4654 9.47668 6.47184 9.47018 6.47828C9.40514 6.48471 9.34011 6.48472 9.26857 6.49116C7.10294 6.72295 5.53562 8.65456 5.76974 10.7986C6.00387 12.9427 7.95488 14.4945 10.1205 14.2627C10.1921 14.2498 10.2571 14.2369 10.3286 14.2305Z" fill="#E6E6E6"/>
<path d="M9.41163 7.77246C7.96137 7.92699 6.91432 9.22117 7.0704 10.657C7.22649 12.0928 8.53367 13.1295 9.98393 12.9749C11.4342 12.8204 12.4812 11.5262 12.3252 10.0904C12.1691 8.65456 10.8619 7.61793 9.41163 7.77246Z" fill="#969696"/>
<defs>
<radialGradient id="paint0_radial_4_720" cx="0" cy="0" r="1" gradientUnits="userSpaceOnUse" gradientTransform="translate(9.69808 10.373) rotate(83.7206) scale(9.58304 9.67704)">
<stop stop-color="#1E1E1E"/>
<stop offset="0.2799" stop-color="#0F0F0F"/>
<stop offset="0.6272" stop-color="#040404"/>
<stop offset="1"/>
</radialGradient>
<radialGradient id="paint1_radial_4_720" cx="0" cy="0" r="1" gradientUnits="userSpaceOnUse" gradientTransform="translate(9.69808 10.373) rotate(83.7206) scale(9.58304 9.67704)">
<stop stop-color="#1E1E1E"/>
<stop offset="0.2799" stop-color="#0F0F0F"/>
<stop offset="0.6272" stop-color="#040404"/>
<stop offset="1"/>
</radialGradient>
<linearGradient id="paint2_linear_4_720" x1="40.4163" y1="3.12736" x2="41.2548" y2="10.9019" gradientUnits="userSpaceOnUse">
<stop stop-color="#E3E3E3"/>
<stop offset="0.1188" stop-color="#E8E8E8"/>
<stop offset="0.4883" stop-color="#C5C5C5"/>
<stop offset="0.5124" stop-color="#C3C3C3"/>
<stop offset="0.7401" stop-color="#D0D0D0"/>
<stop offset="0.9035" stop-color="#FCFCFC"/>
<stop offset="0.9204" stop-color="#F8F8F8"/>
<stop offset="0.9365" stop-color="#EDEDED"/>
<stop offset="0.9523" stop-color="#D9D9D9"/>
<stop offset="0.9679" stop-color="#BEBEBE"/>
<stop offset="0.9832" stop-color="#9C9C9C"/>
<stop offset="0.9901" stop-color="#8A8A8A"/>
</linearGradient>
</defs>
</svg>
