<svg width="55" height="19" viewBox="0 0 55 19" fill="none" xmlns="http://www.w3.org/2000/svg">
<path d="M23.843 18.2H19.3551L22.16 0.810721H26.6483L23.843 18.2ZM15.5796 0.810721L11.3011 12.7712L10.7948 10.1956L10.7953 10.1966L9.28517 2.37642C9.28517 2.37642 9.10257 0.810721 7.15627 0.810721H0.0829981L0 1.10516C0 1.10516 2.16302 1.55915 4.69446 3.09276L8.59352 18.2004H13.2695L20.4097 0.810721H15.5796V0.810721ZM50.8792 18.2H55L51.4071 0.810257H47.7995C46.1335 0.810257 45.7277 2.10617 45.7277 2.10617L39.0344 18.2H43.7127L44.6483 15.617H50.3535L50.8792 18.2ZM45.9408 12.0488L48.2988 5.54132L49.6254 12.0488H45.9408ZM39.3853 4.99244L40.0258 1.2582C40.0258 1.2582 38.0495 0.5 35.9893 0.5C33.7622 0.5 28.4734 1.48194 28.4734 6.25672C28.4734 10.7492 34.6807 10.805 34.6807 13.1647C34.6807 15.5244 29.1129 15.1016 27.2754 13.6136L26.6082 17.5181C26.6082 17.5181 28.6122 18.5 31.6739 18.5C34.7365 18.5 39.3567 16.9003 39.3567 12.5465C39.3567 8.02523 33.0936 7.60427 33.0936 5.63854C33.0941 3.67234 37.4648 3.92492 39.3853 4.99244V4.99244Z" fill="#2566AF"/>
<path d="M10.7953 10.1964L9.2852 2.37625C9.2852 2.37625 9.1026 0.810547 7.15629 0.810547H0.0829984L0 1.10499C0 1.10499 3.3997 1.81574 6.66061 4.47874C9.77858 7.02405 10.7953 10.1964 10.7953 10.1964Z" fill="#E6A540"/>
</svg>
